<svg width="252" height="252" viewBox="0 0 252 252" fill="none" xmlns="http://www.w3.org/2000/svg">
<path d="M110.25 168.635L70.875 129.252L82.0024 118.125L110.25 146.365L169.982 86.625L181.125 97.7681L110.25 168.635Z" fill="#23AC31"/>
<path d="M126 15.75C104.195 15.75 82.8789 22.216 64.7484 34.3305C46.6178 46.4449 32.4868 63.6636 24.1423 83.8091C15.7977 103.955 13.6144 126.122 17.8684 147.509C22.1224 168.895 32.6227 188.54 48.0415 203.958C63.4602 219.377 83.1049 229.878 104.491 234.132C125.878 238.386 148.045 236.202 168.191 227.858C188.336 219.513 205.555 205.382 217.67 187.252C229.784 169.121 236.25 147.805 236.25 126C236.25 96.7599 224.634 68.7174 203.959 48.0415C183.283 27.3656 155.24 15.75 126 15.75V15.75ZM126 220.5C107.31 220.5 89.0391 214.958 73.4986 204.574C57.9582 194.19 45.8459 179.431 38.6934 162.164C31.5409 144.896 29.6695 125.895 33.3158 107.564C36.9621 89.2328 45.9623 72.3945 59.1784 59.1784C72.3945 45.9623 89.2328 36.9621 107.564 33.3158C125.895 29.6695 144.896 31.5409 162.164 38.6934C179.431 45.8459 194.19 57.9582 204.574 73.4986C214.958 89.0391 220.5 107.31 220.5 126C220.5 151.063 210.544 175.099 192.822 192.822C175.099 210.544 151.063 220.5 126 220.5Z" fill="#23AC31"/>
</svg>
